<svg xmlns="http://www.w3.org/2000/svg" xmlns:xlink="http://www.w3.org/1999/xlink" width="500" zoomAndPan="magnify" viewBox="0 0 375 374.999991" height="500" preserveAspectRatio="xMidYMid meet" version="1.0"><defs><g/><clipPath id="fb3f5e7d07"><path d="M 102.097656 58.910156 L 265.597656 58.910156 L 265.597656 218.660156 L 102.097656 218.660156 Z M 102.097656 58.910156 " clip-rule="nonzero"/></clipPath></defs><g clip-path="url(#fb3f5e7d07)"><path fill="#ffffff" d="M 122.566406 58.910156 L 120.523438 62.996094 L 141.980469 75.253906 C 141.980469 85.472656 137.890625 93.644531 128.699219 98.753906 L 107.242188 86.492188 L 106.222656 88.535156 C 111.328125 103.863281 121.546875 114.078125 141.980469 114.078125 C 147.085938 114.078125 162.410156 129.402344 170.585938 137.574219 L 186.929688 121.230469 C 178.757812 113.054688 160.367188 94.667969 160.367188 89.558594 C 160.367188 71.167969 155.261719 58.910156 122.566406 58.910156 Z M 250.273438 64.019531 L 229.839844 78.320312 L 227.796875 86.492188 L 168.542969 145.75 L 160.367188 140.640625 L 156.28125 144.726562 C 156.28125 156.988281 141.980469 163.117188 135.847656 163.117188 L 102.136719 196.832031 C 102.136719 207.046875 113.371094 218.285156 123.589844 218.285156 L 157.304688 184.570312 C 157.304688 178.441406 163.433594 164.136719 175.691406 164.136719 L 179.777344 160.050781 L 174.671875 151.878906 L 233.925781 92.625 L 242.097656 90.582031 L 256.402344 70.148438 Z M 199.191406 133.488281 L 182.84375 149.835938 C 195.105469 162.09375 211.449219 178.441406 211.449219 183.550781 C 211.449219 201.9375 216.558594 214.199219 249.25 214.199219 L 251.292969 210.113281 L 229.839844 197.851562 C 229.839844 187.636719 233.925781 179.460938 243.121094 174.355469 L 264.574219 186.613281 L 265.597656 184.570312 C 260.488281 169.246094 250.273438 159.03125 229.839844 159.03125 C 224.730469 159.03125 211.449219 145.75 199.191406 133.488281 Z M 199.191406 133.488281 " fill-opacity="1" fill-rule="nonzero"/></g><g fill="#ffffff" fill-opacity="1"><g transform="translate(39.088669, 301.11779)"><g><path d="M 24.046875 0.609375 C 20.421875 0.609375 17.828125 -1.5625 16.265625 -5.90625 L 16.265625 0 L 2.640625 0 L 2.640625 -65.359375 L 16.265625 -65.359375 L 16.265625 -52.71875 C 18.378906 -54.882812 20.847656 -55.96875 23.671875 -55.96875 C 27.960938 -55.96875 31.039062 -54.691406 32.90625 -52.140625 C 34.769531 -49.597656 35.703125 -45.9375 35.703125 -41.15625 L 35.703125 -14.453125 C 35.703125 -9.910156 34.742188 -6.265625 32.828125 -3.515625 C 30.910156 -0.765625 27.984375 0.609375 24.046875 0.609375 Z M 19.59375 -9.6875 C 20.5 -9.6875 21.140625 -9.972656 21.515625 -10.546875 C 21.898438 -11.128906 22.128906 -11.859375 22.203125 -12.734375 C 22.273438 -13.617188 22.3125 -15 22.3125 -16.875 L 22.3125 -39.9375 C 22.3125 -41.90625 22.132812 -43.367188 21.78125 -44.328125 C 21.425781 -45.285156 20.671875 -45.765625 19.515625 -45.765625 C 18.253906 -45.765625 17.394531 -45.285156 16.9375 -44.328125 C 16.488281 -43.367188 16.265625 -41.957031 16.265625 -40.09375 L 16.265625 -16.875 C 16.265625 -14.445312 16.460938 -12.640625 16.859375 -11.453125 C 17.265625 -10.273438 18.175781 -9.6875 19.59375 -9.6875 Z M 19.59375 -9.6875 "/></g></g></g><g fill="#ffffff" fill-opacity="1"><g transform="translate(80.160955, 301.11779)"><g><path d="M 2.578125 -59.078125 L 2.578125 -68.296875 L 15.8125 -68.296875 L 15.8125 -59.078125 Z M 2.578125 0 L 2.578125 -55.375 L 15.8125 -55.375 L 15.8125 0 Z M 2.578125 0 "/></g></g></g><g fill="#ffffff" fill-opacity="1"><g transform="translate(101.71848, 301.11779)"><g><path d="M 18.765625 0.609375 C 7.710938 0.609375 2.1875 -5.113281 2.1875 -16.5625 L 2.1875 -38.796875 C 2.1875 -44.046875 3.660156 -48.21875 6.609375 -51.3125 C 9.566406 -54.414062 13.617188 -55.96875 18.765625 -55.96875 C 23.898438 -55.96875 27.941406 -54.414062 30.890625 -51.3125 C 33.847656 -48.21875 35.328125 -44.046875 35.328125 -38.796875 L 35.328125 -16.5625 C 35.328125 -5.113281 29.804688 0.609375 18.765625 0.609375 Z M 18.765625 -9.609375 C 19.816406 -9.609375 20.59375 -9.984375 21.09375 -10.734375 C 21.601562 -11.492188 21.859375 -12.53125 21.859375 -13.84375 L 21.859375 -40.921875 C 21.859375 -44.148438 20.828125 -45.765625 18.765625 -45.765625 C 16.691406 -45.765625 15.65625 -44.148438 15.65625 -40.921875 L 15.65625 -13.84375 C 15.65625 -12.53125 15.90625 -11.492188 16.40625 -10.734375 C 16.914062 -9.984375 17.703125 -9.609375 18.765625 -9.609375 Z M 18.765625 -9.609375 "/></g></g></g><g fill="#ffffff" fill-opacity="1"><g transform="translate(142.488207, 301.11779)"><g><path d="M 2.046875 0 L 2.046875 -11.046875 L 15.28125 -11.046875 L 15.28125 0 Z M 2.046875 0 "/></g></g></g><g fill="#ffffff" fill-opacity="1"><g transform="translate(162.986793, 301.11779)"><g><path d="M 14.0625 0.609375 C 10.582031 0.609375 8.1875 -0.117188 6.875 -1.578125 C 5.570312 -3.046875 4.921875 -5.394531 4.921875 -8.625 L 4.921875 -43.1875 L 1.203125 -43.1875 L 1.203125 -53.25 L 4.921875 -53.25 L 4.921875 -64.96875 L 17.78125 -64.96875 L 17.78125 -53.25 L 21.5625 -53.25 L 21.5625 -43.1875 L 17.78125 -43.1875 L 17.78125 -12.109375 C 17.78125 -11.148438 17.851562 -10.441406 18 -9.984375 C 18.15625 -9.523438 18.5625 -9.296875 19.21875 -9.296875 C 19.71875 -9.296875 20.191406 -9.320312 20.640625 -9.375 C 21.097656 -9.425781 21.40625 -9.453125 21.5625 -9.453125 L 21.5625 -0.375 C 20.800781 -0.175781 19.703125 0.0351562 18.265625 0.265625 C 16.828125 0.492188 15.425781 0.609375 14.0625 0.609375 Z M 14.0625 0.609375 "/></g></g></g><g fill="#ffffff" fill-opacity="1"><g transform="translate(189.233908, 301.11779)"><g><path d="M 18.765625 0.609375 C 7.710938 0.609375 2.1875 -5.113281 2.1875 -16.5625 L 2.1875 -38.796875 C 2.1875 -44.046875 3.660156 -48.21875 6.609375 -51.3125 C 9.566406 -54.414062 13.617188 -55.96875 18.765625 -55.96875 C 23.898438 -55.96875 27.941406 -54.414062 30.890625 -51.3125 C 33.847656 -48.21875 35.328125 -44.046875 35.328125 -38.796875 L 35.328125 -16.5625 C 35.328125 -5.113281 29.804688 0.609375 18.765625 0.609375 Z M 18.765625 -9.609375 C 19.816406 -9.609375 20.59375 -9.984375 21.09375 -10.734375 C 21.601562 -11.492188 21.859375 -12.53125 21.859375 -13.84375 L 21.859375 -40.921875 C 21.859375 -44.148438 20.828125 -45.765625 18.765625 -45.765625 C 16.691406 -45.765625 15.65625 -44.148438 15.65625 -40.921875 L 15.65625 -13.84375 C 15.65625 -12.53125 15.90625 -11.492188 16.40625 -10.734375 C 16.914062 -9.984375 17.703125 -9.609375 18.765625 -9.609375 Z M 18.765625 -9.609375 "/></g></g></g><g fill="#ffffff" fill-opacity="1"><g transform="translate(230.003635, 301.11779)"><g><path d="M 18.765625 0.609375 C 7.710938 0.609375 2.1875 -5.113281 2.1875 -16.5625 L 2.1875 -38.796875 C 2.1875 -44.046875 3.660156 -48.21875 6.609375 -51.3125 C 9.566406 -54.414062 13.617188 -55.96875 18.765625 -55.96875 C 23.898438 -55.96875 27.941406 -54.414062 30.890625 -51.3125 C 33.847656 -48.21875 35.328125 -44.046875 35.328125 -38.796875 L 35.328125 -16.5625 C 35.328125 -5.113281 29.804688 0.609375 18.765625 0.609375 Z M 18.765625 -9.609375 C 19.816406 -9.609375 20.59375 -9.984375 21.09375 -10.734375 C 21.601562 -11.492188 21.859375 -12.53125 21.859375 -13.84375 L 21.859375 -40.921875 C 21.859375 -44.148438 20.828125 -45.765625 18.765625 -45.765625 C 16.691406 -45.765625 15.65625 -44.148438 15.65625 -40.921875 L 15.65625 -13.84375 C 15.65625 -12.53125 15.90625 -11.492188 16.40625 -10.734375 C 16.914062 -9.984375 17.703125 -9.609375 18.765625 -9.609375 Z M 18.765625 -9.609375 "/></g></g></g><g fill="#ffffff" fill-opacity="1"><g transform="translate(270.773362, 301.11779)"><g><path d="M 2.640625 0 L 2.640625 -65.359375 L 16.109375 -65.359375 L 16.109375 0 Z M 2.640625 0 "/></g></g></g><g fill="#ffffff" fill-opacity="1"><g transform="translate(292.709085, 301.11779)"><g><path d="M 17.84375 0.609375 C 6.90625 0.609375 1.4375 -4.9375 1.4375 -16.03125 L 1.515625 -20.421875 L 14.75 -20.421875 L 14.828125 -13.921875 C 14.828125 -12.609375 15.078125 -11.609375 15.578125 -10.921875 C 16.085938 -10.242188 16.921875 -9.90625 18.078125 -9.90625 C 19.835938 -9.90625 20.71875 -11.34375 20.71875 -14.21875 C 20.71875 -16.332031 20.300781 -17.992188 19.46875 -19.203125 C 18.644531 -20.421875 17.320312 -21.710938 15.5 -23.078125 L 8.46875 -28.515625 C 6.050781 -30.378906 4.3125 -32.304688 3.25 -34.296875 C 2.195312 -36.296875 1.671875 -39.109375 1.671875 -42.734375 C 1.671875 -45.554688 2.410156 -47.960938 3.890625 -49.953125 C 5.378906 -51.953125 7.359375 -53.453125 9.828125 -54.453125 C 12.304688 -55.460938 15.054688 -55.96875 18.078125 -55.96875 C 28.816406 -55.96875 34.1875 -50.625 34.1875 -39.9375 L 34.1875 -38.875 L 20.5 -38.875 L 20.5 -41 C 20.5 -42.3125 20.285156 -43.429688 19.859375 -44.359375 C 19.429688 -45.296875 18.710938 -45.765625 17.703125 -45.765625 C 16.796875 -45.765625 16.101562 -45.5 15.625 -44.96875 C 15.144531 -44.4375 14.90625 -43.71875 14.90625 -42.8125 C 14.90625 -40.789062 15.6875 -39.226562 17.25 -38.125 L 25.421875 -32.140625 C 28.335938 -29.972656 30.578125 -27.613281 32.140625 -25.0625 C 33.703125 -22.519531 34.484375 -19.3125 34.484375 -15.4375 C 34.484375 -10.289062 33.019531 -6.328125 30.09375 -3.546875 C 27.175781 -0.773438 23.09375 0.609375 17.84375 0.609375 Z M 17.84375 0.609375 "/></g></g></g></svg>